# xmcd
#
# Track frame offsets:
#	150
#	13190
#	23660
#	34442
#	44827
#	54417
#	64925
#	81202
#	93232
#	108912
#	118795
#	131205
#
# Disc length: 1913 seconds
#
# Revision: 1
# Processed by: cddbd v1.5.2PL0 Copyright (c) Steve Scherf et al.
# Submitted via: audiograbber 1.83.01
#
DISCID=a707770c
DTITLE=Ultimate Country Classics - Volume 2 - Disc 2
DYEAR=2002
DGENRE=Country
TTITLE0=Waylon Jennings - Are You Sure Hank Done It This Way
TTITLE1=Jerry Reed - When You're Hot, You're Hot
TTITLE2=Charlie Rich - There Won't Be Anymore
TTITLE3=Connie Smith - Once A Day
TTITLE4=Porter Wagoner and Dolly Parton - If Teardrops Were Pennies
TTITLE5=Jim Ed Brown - Pop A Top
TTITLE6=Dickey Lee - Rocky
TTITLE7=Dolly Parton - Jolene
TTITLE8=Ronnie Milsap - Only One Love In My Life
TTITLE9=Charley Pride - Is Anybody Goin' To San Antone
TTITLE10=Gary Stewart - She's Actin' Single (I'm Drinkin' Doubles)
TTITLE11=Dave and Sugar - The Door Is Always Open
EXTD=YEAR: 2002
EXTT0=
EXTT1=
EXTT2=
EXTT3=
EXTT4=
EXTT5=
EXTT6=
EXTT7=
EXTT8=
EXTT9=
EXTT10=
EXTT11=
PLAYORDER=
